<?xml version="1.0" encoding="utf-8"?>
<!-- Generator: Adobe Illustrator 27.5.0, SVG Export Plug-In . SVG Version: 6.00 Build 0)  -->
<svg version="1.1" xmlns="http://www.w3.org/2000/svg" xmlns:xlink="http://www.w3.org/1999/xlink" x="0px" y="0px"
	 viewBox="0 0 500 500" style="enable-background:new 0 0 500 500;" xml:space="preserve">
<g id="OBJECTS">
	<ellipse style="opacity:0.3;fill:#93D5F5;" cx="254.119" cy="421.778" rx="190.323" ry="10.748"/>
	<g>
		<path style="fill:#CBBFEF;" d="M417.434,407.915c0,0-6.819-31.403,8.076-47.736c14.895-16.333,25.956,3.26,18.933,6.076
			c-7.023,2.816-2.007,4.582-4.82,8.752c-2.813,4.17-1.741,11.029-5.469,13.134c-3.728,2.104-3.068,6.325-7.12,10.335
			C422.982,402.486,417.434,407.915,417.434,407.915z"/>
		<path style="fill:none;stroke:#4E76CF;stroke-width:2;stroke-linecap:round;stroke-miterlimit:10;" d="M415.819,420.31
			c0,0,3.458-48.795,21.013-59.4"/>
		<path style="fill:none;stroke:#4E76CF;stroke-width:2;stroke-linecap:round;stroke-miterlimit:10;" d="M428.911,369.427
			c0,0,5.77-1.393,9.357-2.413"/>
		<path style="fill:none;stroke:#4E76CF;stroke-width:2;stroke-linecap:round;stroke-miterlimit:10;" d="M426.326,374.276
			c0,0-3.601-5.808-1.844-9.815"/>
		<path style="fill:none;stroke:#4E76CF;stroke-width:2;stroke-linecap:round;stroke-miterlimit:10;" d="M422.934,382.927
			c0,0,6.479-0.579,12.323-3.448"/>
		<path style="fill:none;stroke:#4E76CF;stroke-width:2;stroke-linecap:round;stroke-miterlimit:10;" d="M421.629,387.173
			c0,0-3.163-5.579-3.499-8.79"/>
		<path style="fill:none;stroke:#4E76CF;stroke-width:2;stroke-linecap:round;stroke-miterlimit:10;" d="M419.062,397.745
			c0,0,5.292-0.914,7.67-2.83"/>
	</g>
	<g>
		<path style="fill:#CBBFEF;" d="M413.246,408.656c0,0-15.146-17.829-11.182-33.425c3.965-15.596,17.786-6.806,14.242-2.59
			c-3.544,4.217,0.282,3.631-0.095,7.273c-0.377,3.643,2.663,7.68,0.991,10.31c-1.672,2.63,0.199,5.114-1.028,9.078
			C414.947,403.268,413.246,408.656,413.246,408.656z"/>
		<path style="fill:none;stroke:#4E76CF;stroke-width:2;stroke-linecap:round;stroke-miterlimit:10;" d="M416.459,417.17
			c0,0-14.51-32.522-6.873-45.351"/>
		<path style="fill:none;stroke:#4E76CF;stroke-width:2;stroke-linecap:round;stroke-miterlimit:10;" d="M407.42,380.004
			c0,0,3.228-2.873,5.181-4.758"/>
		<path style="fill:none;stroke:#4E76CF;stroke-width:2;stroke-linecap:round;stroke-miterlimit:10;" d="M407.422,384.005
			c0,0-4.304-2.495-4.549-5.671"/>
		<path style="fill:none;stroke:#4E76CF;stroke-width:2;stroke-linecap:round;stroke-miterlimit:10;" d="M408.21,390.723
			c0,0,3.962-2.593,6.732-6.439"/>
		<path style="fill:none;stroke:#4E76CF;stroke-width:2;stroke-linecap:round;stroke-miterlimit:10;" d="M408.828,393.897
			c0,0-3.944-2.499-5.261-4.445"/>
		<path style="fill:none;stroke:#4E76CF;stroke-width:2;stroke-linecap:round;stroke-miterlimit:10;" d="M410.805,401.567
			c0,0,3.085-2.402,3.955-4.447"/>
	</g>
	<g>
		<path style="fill:#92D6F3;" d="M136.711,102.504c0,0,0.158-14.868,8.559-20.701c8.401-5.834,11.373,4.144,7.915,4.691
			c-3.458,0.547-1.377,1.86-3.076,3.451c-1.699,1.591-1.921,4.796-3.82,5.361s-2.035,2.537-4.276,3.929
			C139.773,100.626,136.711,102.504,136.711,102.504z"/>
		<g>
			<g>
				<path style="fill:#4C58DF;" d="M149.431,82.951c0.222-0.096,0.446-0.181,0.672-0.255c0.333-0.11,0.693,0.071,0.803,0.404
					c0.11,0.333-0.064,0.695-0.404,0.803c-8.618,2.842-15.122,23.998-15.188,24.212c-0.102,0.336-0.458,0.525-0.793,0.423
					c-0.336-0.102-0.525-0.457-0.423-0.793C134.364,106.869,140.57,86.76,149.431,82.951z"/>
			</g>
		</g>
		<g>
			<g>
				<path style="fill:#4C58DF;" d="M145.602,85.74c0.075-0.032,0.156-0.05,0.243-0.051c0.027-0.001,2.753-0.035,4.444-0.124
					c0.35-0.019,0.65,0.251,0.668,0.601c0.018,0.351-0.251,0.651-0.601,0.668c-1.716,0.09-4.467,0.126-4.494,0.126
					c-0.351,0.005-0.639-0.277-0.643-0.627C145.214,86.068,145.373,85.839,145.602,85.74z"/>
			</g>
		</g>
		<g>
			<g>
				<path style="fill:#4C58DF;" d="M144.114,83.045c0.201-0.087,0.441-0.067,0.63,0.073c0.282,0.209,0.341,0.607,0.132,0.889
					c-0.825,1.114-0.344,3.289-0.088,4.032c0.114,0.332-0.062,0.694-0.395,0.808c-0.332,0.114-0.694-0.063-0.807-0.395
					c-0.046-0.135-1.119-3.329,0.269-5.202C143.924,83.156,144.014,83.088,144.114,83.045z"/>
			</g>
		</g>
		<g>
			<g>
				<path style="fill:#4C58DF;" d="M141.516,91.214c0.102-0.044,0.217-0.062,0.335-0.046c0.029,0.004,2.907,0.381,5.682-0.275
					c0.342-0.081,0.684,0.131,0.765,0.473c0.081,0.341-0.127,0.684-0.473,0.764c-3.012,0.711-6.019,0.315-6.146,0.297
					c-0.348-0.047-0.591-0.368-0.544-0.715C141.167,91.484,141.317,91.3,141.516,91.214z"/>
			</g>
		</g>
		<g>
			<g>
				<path style="fill:#4C58DF;" d="M139.816,88.67c0.1-0.043,0.211-0.061,0.326-0.047c0.349,0.042,0.597,0.358,0.555,0.707
					c-0.134,1.109,0.424,3.312,0.651,4.067c0.1,0.336-0.092,0.691-0.427,0.791c-0.336,0.101-0.69-0.09-0.792-0.427
					c-0.036-0.121-0.888-2.988-0.695-4.584C139.464,88.945,139.615,88.756,139.816,88.67z"/>
			</g>
		</g>
		<g>
			<g>
				<path style="fill:#4C58DF;" d="M138.242,97.5c0.087-0.037,0.183-0.056,0.284-0.05c0.646,0.034,2.523,0.024,3.439-0.423
					c0.318-0.143,0.696-0.023,0.85,0.293c0.154,0.316,0.023,0.696-0.293,0.85c-1.366,0.668-3.793,0.565-4.064,0.55
					c-0.351-0.019-0.619-0.318-0.601-0.668C137.872,97.801,138.027,97.592,138.242,97.5z"/>
			</g>
		</g>
	</g>
	<g>
		<g>
			<g>
				<path style="fill:#FFB957;" d="M376.762,275.046l-0.008-0.229c-0.03-0.864,0.679-1.568,1.543-1.541
					c4.375,0.135,7.94,1.51,10.611,4.098c3.45,3.341,4.457,7.817,4.75,10.213c0.109,0.889-0.588,1.671-1.483,1.668l0,0l-0.231,0
					c-0.751,0-1.383-0.56-1.477-1.306c-0.246-1.943-1.067-5.648-3.809-8.291c-2.073-1.998-4.914-3.064-8.456-3.178
					C377.419,276.457,376.789,275.829,376.762,275.046z"/>
			</g>
		</g>
		<g>
			<g>
				<path style="fill:#FDCE9E;" d="M376.845,280.556l-0.009-0.259c-0.028-0.787,0.625-1.435,1.411-1.387
					c2.684,0.162,4.9,1.067,6.604,2.699c2.131,2.042,2.901,4.727,3.179,6.398c0.136,0.815-0.486,1.559-1.313,1.566l0,0l-0.256,0.003
					c-0.66,0.007-1.228-0.467-1.338-1.118c-0.212-1.25-0.784-3.278-2.323-4.741c-1.175-1.115-2.754-1.743-4.707-1.869
					C377.409,281.803,376.87,281.243,376.845,280.556z"/>
			</g>
		</g>
		<path style="fill:#FFB957;" d="M381.278,289.936c-1.233,1.322-3.304,1.395-4.627,0.162c-1.322-1.233-1.395-3.304-0.162-4.627
			c1.233-1.323,3.304-1.395,4.627-0.162C382.438,286.542,382.51,288.614,381.278,289.936z"/>
	</g>
	<g>

			<text transform="matrix(0.8938 -0.4484 0.4484 0.8938 97.4506 184.6886)" style="fill:#8E7CC4; font-family:'Montserrat-Black'; font-size:18.75px;">4G</text>
	</g>
	<g>
		<g>
			<g>
				<path style="fill:#F56281;" d="M71.13,260.015l-2.427-2.427c-9.148-9.148-8.569-24.089,1.162-32.614
					c49.277-43.17,102.338-64.507,157.998-63.427c71.879,1.366,128.579,40.092,156.249,63.336
					c10.264,8.622,10.622,24.293,0.79,33.405l0,0l-2.529,2.355c-8.229,7.664-20.858,7.983-29.497,0.784
					c-22.515-18.76-69.329-50.955-126.318-51.896c-43.09-0.711-85.077,16.601-125.007,51.51
					C92.723,268.759,79.421,268.306,71.13,260.015z"/>
			</g>
		</g>
		<g>
			<g>
				<path style="fill:#F56281;" d="M128.283,319.492l-2.74-2.74c-8.332-8.332-7.796-22.087,1.292-29.588
					c31.036-25.614,64.54-38.328,99.848-37.854c44.169,0.601,80.007,22.143,100.102,37.595c9.806,7.54,10.592,22.034,1.61,30.539h0
					l-2.772,2.644c-7.155,6.824-18.201,7.421-26.059,1.42c-15.078-11.517-42.045-27.887-73.82-28.206
					c-24.249-0.22-47.946,9.026-70.605,27.574C147.18,327.393,135.558,326.767,128.283,319.492z"/>
			</g>
		</g>
		<circle style="fill:#F56281;" cx="223.546" cy="376.954" r="49"/>
	</g>
	<g>
		<path style="fill:#120B51;" d="M220.899,241.926l-0.387,1.398c0,0,1.25,6.287,5,12.35s3.688,5.875,5.438,7.563
			s5.875,3.264,8.75,3.319l-13.938-17.944L220.899,241.926z"/>
		<path style="fill:#120B51;" d="M295.032,236.446c0,0,0.23-0.034,0.73,0.878c0.5,0.912-1.5,12.537-4.5,17.912
			s-3.125,6.725-12.125,8.925L295.032,236.446z"/>
		<polygon style="fill:#100D42;" points="249.21,172.404 255.21,172.404 255.21,173.847 249.71,176.222 		"/>
		<path style="fill:#F03C1F;" d="M246.735,91.04c-1.201,2.546-3.788,4.305-6.789,4.305c-0.714,0-1.408-0.103-2.059-0.3
			c-3.136-0.88-5.443-3.767-5.443-7.203c0-3.332,2.184-6.168,5.205-7.141c0.973,2.939,2.08,5.03,2.525,5.671
			c0.59,0.869,1.604,1.728,2.773,2.504C244.148,89.695,245.504,90.44,246.735,91.04z"/>
		<path style="fill:#F03C1F;" d="M252.82,95.987c0,0.559-0.062,1.097-0.176,1.625c-0.735,3.363-3.736,5.878-7.327,5.878
			c-4.14,0-7.503-3.353-7.503-7.503c0-0.321,0.021-0.631,0.072-0.942c0.352-2.898,2.37-5.278,5.061-6.168
			c1.201,0.817,2.556,1.563,3.788,2.163c2.08,1.024,3.819,1.676,3.819,1.676l-0.083-2.184c0.228,0.217,0.435,0.435,0.631,0.673
			c0,0,0,0,0,0.01C252.179,92.52,252.82,94.176,252.82,95.987z"/>
		<path style="fill:#F03C1F;" d="M265.932,92.82c0,0.776-0.114,1.521-0.341,2.225v0.01c-0.952,3.053-3.798,5.267-7.161,5.267
			c-2.328,0-4.409-1.056-5.785-2.711c-1.076-1.304-1.718-2.97-1.718-4.792c0-0.548,0.062-1.087,0.176-1.604c0-0.01,0-0.01,0-0.01
			c0.145-0.652,0.362-1.263,0.673-1.842l2.753,0.176l4.822,0.31l-0.517,2.97c0,0,3.218-0.435,6.654-2.525
			C265.777,91.082,265.932,91.93,265.932,92.82z"/>
		<path style="fill:#F03C1F;" d="M269.451,88.484c0,2.825-1.552,5.288-3.86,6.561v0.01c-1.076,0.59-2.318,0.931-3.643,0.931
			c-3.777,0-6.913-2.794-7.42-6.447l4.822,0.31l-0.517,2.97c0,0,3.218-0.435,6.654-2.525c1.304-0.797,2.639-1.832,3.829-3.177
			C269.409,87.563,269.451,88.019,269.451,88.484z"/>
		<path style="fill:#F03C1F;" d="M239.974,95.348c0,2.941-2.384,5.325-5.325,5.325c-2.941,0-5.325-2.384-5.325-5.325
			c0-2.941,2.384-5.325,5.325-5.325C237.59,90.023,239.974,92.407,239.974,95.348z"/>
		<path style="fill:#F03C1F;" d="M237.768,102.963c0,2.941-2.384,5.325-5.325,5.325c-2.941,0-5.325-2.384-5.325-5.325
			c0-2.941,2.384-5.325,5.325-5.325C235.384,97.638,237.768,100.023,237.768,102.963z"/>
		<path style="fill:#F03C1F;" d="M238.903,105.424c0,2.941-2.384,5.325-5.325,5.325c-2.941,0-5.325-2.384-5.325-5.325
			c0-2.941,2.384-5.325,5.325-5.325C236.519,100.099,238.903,102.483,238.903,105.424z"/>
		<path style="fill:#E7A19F;" d="M228.673,106.345c0,0-9.573,21.862-9.961,23.414c-0.388,1.552,11.901,26.389,11.901,26.389
			l3.881-4.096c0,0-3.751-11.039-4.657-14.531c-0.906-3.493-2.726-7.632-3.239-7.632l7.895-17.852L228.673,106.345z"/>
		<path style="fill:#E7A19F;" d="M281.835,106.345c0,0,9.573,21.862,9.961,23.414c0.388,1.552-11.901,26.389-11.901,26.389
			l-3.881-4.096c0,0,3.751-11.039,4.657-14.531c0.905-3.493,2.725-7.632,3.238-7.632l-7.896-17.852L281.835,106.345z"/>
		<path style="fill:#F03C1F;" d="M263.163,50.801c0,0-12.263-5.581-22.18,6.147s-2.165,27.446-0.808,29.429
			c2.242,3.275,10.373,6.34,10.373,6.34l-0.134-3.431l8.931,0.559l-0.514,2.979c0,0,11.207-1.505,14.057-12.481
			c2.85-10.976,0-17.53,0-17.53L263.163,50.801z"/>
		<path style="fill:#E7A19F;" d="M276.056,77.175c0,1.749-1.418,3.167-3.167,3.167c-1.749,0-3.167-1.418-3.167-3.167
			c0-1.749,1.418-3.167,3.167-3.167C274.638,74.008,276.056,75.426,276.056,77.175z"/>
		<circle style="fill:#E7A19F;" cx="237.816" cy="74.008" r="3.167"/>
		<circle style="fill:#E7A19F;" cx="255.941" cy="72.598" r="17.579"/>
		<path style="fill:#F03C1F;" d="M259.319,52.219c0,0,7.359-3.999,11.358,0c4,3.999,5.759,8.959,3.36,15.198
			c-2.4,6.239,3.36,5.279,3.36,5.279s-5.759,3.626-10.559,0.053c-4.799-3.573-7.199-7.252-7.519-9.332c0,0-5.279,9.599-17.758,7.359
			c0,0-2.539,5.386-2.219,7.625l-0.98-8.604C238.362,69.798,243.973,45.769,259.319,52.219z"/>
		<path style="fill:none;stroke:#353535;stroke-miterlimit:10;" d="M228.841,152.052"/>
		<path style="fill:none;stroke:#353535;stroke-miterlimit:10;" d="M279.167,152.052"/>
		<path style="fill:#FE9B24;" d="M260.978,94.789c0,0,13.108,1.897,16.73,3.105c3.622,1.207,10.293,19.318,12.018,19.835
			c0,0-9.322,6.028-13.289,7.408l-1.199-10.125c0,0,0.228,4.614-0.979,8.753c-1.207,4.139-5.002,7.934,2.501,28.286h-44.365
			c7.503-20.353,3.708-24.147,2.501-28.286c-1.207-4.14-0.401-8.969-0.401-8.969l-1.686,11.901
			c-3.967-1.38-13.108-8.969-13.108-8.969c1.725-0.517,8.124-18.628,11.746-19.835c3.622-1.207,16.73-3.105,16.73-3.105H260.978z"/>
		<path style="fill:#E7A19F;" d="M259.345,89.845c0,0-1.604,7.204,0,8.153h-9.805c0,0,1.465-2.332,0.874-8.712L259.345,89.845z"/>
		<path style="fill:#120B51;" d="M228.225,172.35c0,0,3.372,4.499,7.895,5.726c0,0-5.739,14.724-5.653,25.46
			c0.086,10.736-6.382,30.674-6.382,30.674s5.433,5.215,9.831,2.147c4.398-3.068,17.507-49.079,20.008-55.214
			c2.501-6.135-5.778-9.918-5.778-9.918L228.225,172.35z"/>
		<path style="fill:#120B51;" d="M274.815,169.179c0,0-2.479,5.047-6.695,7.092c0,0,8.372,13.403,10.28,23.968
			c1.908,10.565,11.964,28.957,11.964,28.957s-4.371,6.132-9.262,3.935c-4.891-2.198-26.312-44.977-29.908-50.541
			c-3.596-5.564,3.837-10.818,3.837-10.818L274.815,169.179z"/>
		<circle style="fill:none;stroke:#353535;stroke-miterlimit:10;" cx="262.704" cy="75.259" r="5.318"/>
		<path style="fill:#353535;" d="M263.456,77.175c0,1.048-0.337,1.897-0.752,1.897s-0.752-0.85-0.752-1.897s0.337-1.897,0.752-1.897
			S263.456,76.127,263.456,77.175z"/>
		<circle style="fill:none;stroke:#353535;stroke-miterlimit:10;" cx="249.125" cy="75.024" r="5.318"/>
		<path style="fill:#353535;" d="M249.877,76.94c0,1.048-0.337,1.897-0.752,1.897c-0.415,0-0.752-0.849-0.752-1.897
			c0-1.048,0.337-1.897,0.752-1.897C249.54,75.043,249.877,75.892,249.877,76.94z"/>
		<path style="fill:none;stroke:#353535;stroke-miterlimit:10;" d="M254.215,76.565c0,0,1.64-1.699,3.339,0"/>
		<line style="fill:none;stroke:#353535;stroke-miterlimit:10;" x1="243.806" y1="75.024" x2="238.464" y2="70.696"/>
		<g>
			<path style="fill:#C67373;" d="M252.153,84.847c0,0,0.432,0.108,1.025,0.223c0.595,0.12,1.359,0.227,2.113,0.22
				c0.378,0.016,0.753-0.029,1.112-0.061c0.355-0.053,0.697-0.099,0.991-0.168c0.301-0.051,0.55-0.122,0.735-0.16
				c0.185-0.038,0.298-0.054,0.298-0.054s-0.067,0.086-0.199,0.226c-0.133,0.138-0.325,0.344-0.608,0.516
				c-0.139,0.09-0.285,0.204-0.464,0.272c-0.175,0.075-0.356,0.177-0.561,0.228c-0.204,0.046-0.412,0.134-0.634,0.149
				c-0.221,0.021-0.446,0.06-0.673,0.052c-0.227-0.004-0.452-0.021-0.672-0.057c-0.222-0.018-0.429-0.097-0.632-0.147
				c-0.399-0.131-0.753-0.298-1.027-0.489C252.396,85.236,252.153,84.847,252.153,84.847z"/>
		</g>
		<path style="fill:#E7A19F;" d="M260.978,94.789h-2.996l-2.449-0.517h-6.209l-1.146,0.517l-2.305,0.388
			c0,0,1.355,5.347,3.712,6.382s8.464,1.164,10.973-0.647c2.509-1.811,2.996-5.735,2.996-5.735L260.978,94.789z"/>
		<path style="fill:#F03C1F;" d="M271.029,74.247c0,0,0.739,2.712,0.496,5.36c0,0,1.884-4.333,1.86-6.083L271.029,74.247z"/>
		<line style="fill:none;stroke:#353535;stroke-miterlimit:10;" x1="268.022" y1="75.81" x2="274.035" y2="73.739"/>
		<path style="fill:#E7A19F;" d="M259.345,89.845c0,0-1.386,4.912,4.208,5.332l-1.564,1.232l-5.154-1.064l-0.5-4.248L259.345,89.845
			z"/>
		<path style="fill:#E7A19F;" d="M250.415,89.286c0,0,0.619,5.596-4.543,5.891l1.213,0.815h6.25l-0.515-4.145L250.415,89.286z"/>
		<polygon style="fill:#8270BA;" points="277.997,172.404 226.599,172.404 226.599,170.507 278.342,170.507 		"/>
		<polygon style="fill:#9378D7;" points="293.348,144.118 218.061,144.118 226.599,170.507 278.342,170.507 		"/>
		<rect x="218.061" y="141.531" style="fill:#8270BA;" width="75.287" height="2.587"/>
		<path style="fill:#FE9B24;" d="M224.085,234.21c0,0-2.989,6.179-3.241,7.99c-0.252,1.811,3.629,13.712,11.003,21.215
			c0,0,9.314,6.209,12.936,1.164c3.622-5.045-1.025-11.171-3.065-12.418c-2.039-1.247-6.461-14.286-6.808-16.975
			C234.91,235.187,229.777,239.285,224.085,234.21z"/>
		<path style="fill:#FE9B24;" d="M290.364,229.196c0,0,4.084,5.517,4.668,7.25c0.583,1.733-1.021,14.147-6.874,22.888
			c0,0-8,7.83-12.495,3.545c-4.495-4.285-1.066-11.168,0.707-12.772s3.697-15.237,3.539-17.943
			C279.908,232.165,285.713,235.239,290.364,229.196z"/>
		<path style="fill:#F03C1F;" d="M233.917,236.358c0,0,3.234,8.948,4.528,12.182c1.294,3.234,2.637,3.601,3.234,5.572
			c0.597,1.971-5.692,4.259-7.115,3.353c-1.423-0.905-8.641-16.637-5.808-20.478L233.917,236.358z"/>
		<path style="fill:#F03C1F;" d="M281.102,233.13c0,0-1.517,9.393-2.188,12.81c-0.671,3.418-1.922,4.028-2.143,6.076
			c-0.221,2.048,6.383,3.129,7.613,1.975c1.23-1.154,5.403-17.952,1.906-21.2L281.102,233.13z"/>
		<path style="fill:#8270BA;" d="M261.777,158.199c-0.539,0.986-1.668,1.672-2.986,1.672c-1.838,0-3.327-1.322-3.327-2.953
			c0-1.17,0.773-2.171,1.884-2.649c-0.674-0.195-1.393-0.303-2.14-0.303c-3.309,0-6.071,2.065-6.749,4.821
			c0.327-0.042,0.658-0.071,0.999-0.071c0.748,0,1.466,0.109,2.14,0.303c-1.112,0.478-1.884,1.48-1.884,2.649
			c0,1.631,1.49,2.953,3.327,2.953c1.318,0,2.447-0.686,2.986-1.672c0.22,0.598,0.342,1.236,0.342,1.899
			c0,0.451-0.058,0.889-0.162,1.312c3.342-0.43,5.912-2.976,5.912-6.062C262.119,159.435,261.997,158.797,261.777,158.199z"/>
		<path style="fill:#D69494;" d="M250.241,91.553c0,0,7.282,1.41,8.895-0.316l0.209-1.391c0,0-5.308,1.115-8.931-0.559
			C250.415,89.286,250.452,90.854,250.241,91.553z"/>
		<path style="fill:#D69494;" d="M222.697,120.122c0,0,5.392,3.962,6.234,4.492l-0.398,0.9c0,0-6.057-3.33-6.195-4.555
			L222.697,120.122z"/>
		<path style="fill:#D69494;" d="M280.875,123.027l6.536-3.838l0.289,0.672c0,0-6.284,3.65-6.595,3.685L280.875,123.027z"/>
		<path style="fill:#D69494;" d="M259.319,63.417c0,0-1.504,2.419,3.778,6.067C263.097,69.484,260.046,66.695,259.319,63.417z"/>
		<path style="fill:#D69494;" d="M253.335,69.081c0,0,3.604-1.921,5.984-5.664C259.319,63.417,259.282,68.162,253.335,69.081z"/>
		<circle style="fill:#D69494;" cx="262.012" cy="82.674" r="0.313"/>
		<circle style="fill:#D69494;" cx="265.267" cy="81.768" r="0.313"/>
		<circle style="fill:#D69494;" cx="264.955" cy="84.534" r="0.313"/>
		<circle style="fill:#D69494;" cx="248.685" cy="82.08" r="0.313"/>
		<circle style="fill:#D69494;" cx="245.317" cy="81.142" r="0.313"/>
		<circle style="fill:#D69494;" cx="246.423" cy="84.299" r="0.313"/>
		<path style="fill:#DB8321;" d="M244.518,95.345c0,0,0.565,3.231,1.904,4.978c1.339,1.746,2.152,2.587,6.912,3.167
			c4.76,0.58,7.01-0.436,8.01-1.178c1-0.742,2.969-2.173,3.609-6.916l-1.401-0.219c0,0-0.292,2.735-1.854,4.616
			c-1.563,1.881-4.256,2.57-6.615,2.507c-2.36-0.063-6.025,0.142-7.308-2.528c-1.283-2.67-1.732-3.53-1.904-4.596L244.518,95.345z"
			/>
	</g>
	<g>
		<path style="fill:#F8CEC8;" d="M188.757,230.332c0,0,6.851,16.937,7.358,19.621c0.507,2.684-12.167,6.856-12.167,6.856
			l-4.43-9.154l5.492-2.86l-2.36-11.073L188.757,230.332z"/>
		<path style="fill:#F8CEC8;" d="M135.733,281.68c0,0,5.005,0.941,6.505-1.559c0,0,0.979-1.812,0.426-4.263l-1.011-1.019
			C141.654,274.839,134.728,276.739,135.733,281.68z"/>
		<path style="fill:#F8CEC8;" d="M175.827,249.297l-36.968,16.063c-0.847,0.368-1.538,1.023-1.951,1.849l-3.82,7.641
			c-0.652,1.305-0.527,2.86,0.319,4.048c0.911,1.28,2.001,2.722,2.327,2.782c0.591,0.108,6.931-5.822,6.931-5.822l2.632-4.928
			l34.961-12.479L175.827,249.297z"/>
		<path style="fill:#7A461F;" d="M140.841,270.17c0,0-1.865,1.385-2.531,3.052c-0.667,1.667-3.477,2.777-1.981,4.5
			c1.497,1.723,2.647-1.5,3.814-1.833c1.167-0.333,2.342-0.048,4.338-1.691c1.996-1.643,1.549-2.692,2.489-3.027
			c0.94-0.336,2.802-1,2.802-1l-1.462-1.287L140.841,270.17z"/>
		<path style="fill:#D6A5A3;" d="M138.313,271.528c0,0-2.812,2.547-2.228,5.131c0.583,2.583,0.398,4.16,1.074,3.955
			c0.676-0.205,5.342-1.372,5.342-1.372l1.833-3.162c0,0-0.353-3.069-1.083-3.505C142.521,272.14,138.313,271.528,138.313,271.528z"
			/>
		<path style="fill:#F8CEC8;" d="M140.245,269.545c0,0-1.865,1.385-2.531,3.052c-0.667,1.667-3.477,2.777-1.981,4.5
			c1.496,1.723,2.647-1.5,3.814-1.833c1.167-0.333,2.342-0.048,4.338-1.691c1.996-1.643,1.549-2.692,2.489-3.027
			c0.94-0.336,2.802-1,2.802-1l-1.462-1.287L140.245,269.545z"/>
		<path style="fill:#F8CEC8;" d="M158.316,177.623c0,0-6.3,5.582-3.597,13.958c0,0-5.137-0.646-3.552,2.819
			c1.585,3.465,3.084,2.866,3.084,2.866s-0.405,7.83,7.948,10.673c8.353,2.843,16.214,0.923,16.214,0.923l3.828-22.646
			c0,0-7.171-10.167-7.593-10.276c-0.421-0.109-11.927,2.343-11.927,2.343L158.316,177.623z"/>
		<path style="fill:#1B145D;" d="M136.404,365.861c0,0,2.938,3.557,3.379,4.15c0.441,0.593-4.651,14.062-8.273,17.349
			s1.626,9.412,3.328,9.88c1.702,0.468,15.156-12.833,19.817-21.061c4.661-8.229,3.323-6.313,3.286-7.965l-13.185-10.81
			L136.404,365.861z"/>
		<path style="fill:#353535;" d="M136.715,399.007l-1.877-1.766c1.702,0.468,15.156-12.833,19.817-21.061
			c4.661-8.229,3.323-6.313,3.286-7.965l2.064,2.387C152.331,389.105,136.715,399.007,136.715,399.007z"/>
		<path style="fill:#393CB6;" d="M138.872,370.366c0,0,1.25-1.524,5.268-0.489c4.018,1.035-1.681,2.05-1.681,2.05
			s-2.513-1.074-3.997,0.368L138.872,370.366z"/>
		<path style="fill:#393CB6;" d="M137.687,374.325c0,0,1.419-1.368,5.289,0.128c3.87,1.496-1.909,1.84-1.909,1.84
			s-2.371-1.36-4.013-0.101L137.687,374.325z"/>
		<path style="fill:#F8CEC8;" d="M139.626,369.447l-0.302-0.019c-0.958-1.192-2.919-3.567-2.919-3.567l8.353-8.457l3.259,2.672
			C148.016,360.076,151.275,368.686,139.626,369.447z"/>
		<path style="fill:#1B145D;" d="M134.674,403.431c0,0-1.221,4.45-1.452,5.151c-0.232,0.701-14.179,4.281-18.951,3.208
			c-4.772-1.073-6.765,6.742-6.17,8.404c0.595,1.661,19.214,5.02,28.626,4.102c9.412-0.918,7.076-0.912,8.406-1.892l1.262-17.003
			L134.674,403.431z"/>
		<path style="fill:#353535;" d="M107.735,422.746l0.365-2.552c0.596,1.661,19.214,5.02,28.627,4.102
			c9.412-0.918,7.076-0.912,8.406-1.892l-0.766,3.061C124.816,429.828,107.735,422.746,107.735,422.746z"/>
		<path style="fill:#393CB6;" d="M132.408,408.042c0,0,1.966,0.146,3.43,4.028c1.464,3.882-2.644-0.196-2.644-0.196
			s-0.566-2.674-2.6-3.059L132.408,408.042z"/>
		<path style="fill:#393CB6;" d="M128.487,409.348c0,0,1.935,0.374,2.936,4.401c1.001,4.027-2.603-0.503-2.603-0.503
			s-0.251-2.722-2.225-3.341L128.487,409.348z"/>
		<path style="fill:#F8CEC8;" d="M133.593,408.13l-0.158-0.259c0.424-1.469,1.239-4.44,1.239-4.44l11.722,1.971l-0.312,4.203
			C146.084,409.605,140.915,417.222,133.593,408.13z"/>
		<path style="fill:#49221F;" d="M168.027,193.294c0,0-1.687-0.762-1.853-5.876c0,0-9.608-3.416-10.255-8.468
			c0,0-8.624-6.232-4.132-13.165s8.272,4.443,8.272,4.443s-2.075-9.516,5.174-10.2c7.249-0.684,1.171,9.143,1.171,9.143
			s1.913-4.158,3.764-4.028c1.851,0.13,2.865,2.323,1.668,4.433c0,0,12.66-5.213,17.911,9.055c0,0,10.326,6.158,0.938,20.689
			c-9.388,14.53-15.664,8.487-16.54,7.376c-0.876-1.111-3.127-9.137-2.321-11.441c0.805-2.304,4.368-3.127,3.943-9.309
			c-0.425-6.181-5.323-4.331-5.842-1.697C169.406,186.881,172.166,194.108,168.027,193.294z"/>
		<path style="fill:#F8CEC8;" d="M177.254,208.734c-1.703,0.288-5.31,0.707-9.597,0.145l-0.019,0.004c0,0,1.127,1.863,0.582,4.542
			c0,0-3.955,2.789-3.308,4.662c0.648,1.873,6.365-1.223,9.309-2.415c2.945-1.192,3.494-1.996,4.154-2.57
			c0.66-0.574-0.74-1.962-0.962-4.329L177.254,208.734z"/>
		<path style="fill:none;stroke:#353535;stroke-miterlimit:10;" d="M158.358,188.374c0.398,3.111-0.667,5.811-2.381,6.03
			c-1.713,0.219-3.425-2.124-3.824-5.235c-0.398-3.111,0.667-5.811,2.381-6.03C156.247,182.919,157.959,185.263,158.358,188.374z"/>

			<rect x="158.053" y="186.118" transform="matrix(0.9919 -0.127 0.127 0.9919 -22.5057 21.6668)" style="fill:#353535;" width="1.105" height="2.302"/>

			<rect x="158.478" y="185.391" transform="matrix(0.9919 -0.127 0.127 0.9919 -22.2878 22.3704)" style="fill:#353535;" width="11.485" height="1.02"/>
		<path style="fill:#1B145D;" d="M185.413,226.195c1.245,14.836-3.088,34.465-1.588,44.877c1.489,10.403-2.622,15.498-2.637,18.434
			c-0.006,2.935-0.209,3.939-6.026,3.051c-5.817-0.889-25.392-0.983-35.737-10.418c0,0,5.54-19.138,9.705-27.331
			c4.174-8.194,8.761-29.656,10.378-32.308c0.687-1.125,2.093-3.056,3.589-4.891c2.029-2.49,4.217-4.805,5.023-4.771
			c1.407,0.064,10.161-0.323,10.161-0.323s0.706-0.139,1.692,0.302C181.809,213.637,184.594,216.518,185.413,226.195z"/>
		<path style="fill:#0C0947;" d="M161.507,246.864c0,0-3.915-4.838-3.9-10.267c0.015-5.429,1.417-6.097,1.417-6.097l4.375-2.112
			l2.645,14.226L161.507,246.864z"/>
		<path style="fill:#F8CEC8;" d="M179.972,212.816l0.001,0.01c-4.599,3.885-8.662,5.15-13.33,6.892
			c-4.669,1.733-3.547-2.109-3.547-2.109c2.029-2.49,4.217-4.805,5.023-4.771c1.407,0.064,10.161-0.323,10.161-0.323
			S178.987,212.375,179.972,212.816z"/>
		<path style="fill:#F8CEC8;" d="M144.359,241.725l26.257-18.362l5.008,10.445c0,0-33.032,20.86-34.796,21.086
			c-1.764,0.226-18.479-28.446-18.479-28.446l5.268-3.424L144.359,241.725z"/>
		<path style="fill:#0C0947;" d="M160.087,231.721c0,0,4.991,2.669,1.771,14.942c0,0,15.669-7.749,17.884-11.623
			c3.38-5.912,1.826-10.778-1.928-13.354C174.06,219.11,169.83,220.728,160.087,231.721z"/>
		<path style="fill:#1B145D;" d="M159.024,230.501c0,0,5.704,4.091,2.484,16.364c0,0,14.678-8.36,17.541-11.784
			c2.863-3.423,3.487-10.962-0.267-13.538C175.028,218.966,168.767,219.507,159.024,230.501z"/>
		<path style="fill:#393CB6;" d="M179.827,292.702c0,0-1.139,12.12-8.062,21.076c-6.923,8.957-12.564,33.645-13.237,39.844
			c0,0-6.175,47.254-9.766,53.583l-16.286-3.049c0,0,6.526-40.697,6.73-52.461c0,0,4.453-39.697,7.235-44.7
			c0,0-2.135-11.745-1.023-20.796L179.827,292.702z"/>
		<path style="fill:#393CB6;" d="M139.424,282.139c0,0-23.738,22.112-30.287,32.08c0,0-4.557,5.149-0.569,10.833
			c3.989,5.684,25.099,33.032,28.725,46.072c0,0,10.063-5.392,11.93-12.478c0,0-12.457-28.55-18.878-35.405
			c0,0,8.265-10.062,16.097-16.245l8.668-5.512l-1.766-13.786L139.424,282.139z"/>
		<path style="fill:#1B145D;" d="M183.747,217.743l-0.001,0.006c0.737,1.984,1.349,4.702,1.666,8.446
			c0.27,3.218,0.269,6.666,0.13,10.191l-0.148,3.118c4.195-0.461,8.433-7.418,8.433-7.418
			C191.149,228.351,183.844,218.007,183.747,217.743z"/>

			<rect x="117.377" y="194.168" transform="matrix(0.9733 -0.2293 0.2293 0.9733 -43.9118 32.8188)" style="fill:#353535;" width="3.719" height="22.316"/>
		<path style="fill:#F8CEC8;" d="M123.606,215.76c0,0,1.293-1.867,1.201-2.588c-0.092-0.722-2.682-1.641-2.516-2.993
			c0.166-1.352,1.636-2.6,3.156-0.92c1.52,1.68,1.493,2.743,3.471,3.55c1.978,0.806,0.652,8.276-1.3,10.215l-5.178,3.578
			C122.439,226.601,115.192,214.218,123.606,215.76z"/>
		<path style="fill:#F8CEC8;" d="M116.873,203.402c0,0-3.616,4.239-4.466,5.244c-0.849,1.005,3.141,13.7,9.942,17.801l2.423-1.575
			l-4.787-8.259L116.873,203.402z"/>
		<path style="fill:#F8CEC8;" d="M177.918,208.882c0,0-0.475,0.774,0,1.963c0.475,1.189,0.496,1.573,1.002,1.673
			c0.506,0.1,0,0.475,0,0.475s-2.21-1.167-2.252-1.458c-0.042-0.292-0.25-0.917-0.167-1.458c0.083-0.542,0.458-1.342,0.458-1.342
			L177.918,208.882z"/>
		<path style="fill:#F8CEC8;" d="M166.786,209.077c0,0,0.977,0.223,1.346,1.069c0.369,0.847,0.119,2.43-0.214,2.847
			c-0.333,0.417,1.708,0.542,1.708,0.542v-3.083c0,0-0.875-1.518-1-1.717c-0.125-0.199-1.458-0.408-1.458-0.408L166.786,209.077z"/>
		<path style="fill:#353535;" d="M156.21,188.696c0,0.788-0.154,1.427-0.344,1.427c-0.19,0-0.344-0.639-0.344-1.427
			c0-0.788,0.154-1.427,0.344-1.427C156.056,187.269,156.21,187.908,156.21,188.696z"/>
		<path style="fill:#F8CEC8;" d="M168.144,212.493c0,0-0.229,0.325-0.508,0.499c-0.279,0.174,4.283,0.36,4.283,0.36l7.002-0.835
			l-0.918-0.311h-5.646L168.144,212.493z"/>
		<path style="fill:#E8BCB8;" d="M175.367,208.926l-7.153,3.281c0,0,0.829-2.671-1.428-3.13L175.367,208.926L175.367,208.926z"/>
	</g>
	<g>
		<path style="fill:#FBCF9E;" d="M63.407,416.096c0,0-25.562-28.245,4.996-50.462C68.403,365.635,92.761,389.556,63.407,416.096z"/>
		<path style="fill:none;stroke:#F69C32;stroke-width:2;stroke-linecap:round;stroke-miterlimit:10;" d="M63.37,422.189
			c0,0,0.595-41.391,3.515-50.99"/>
		<path style="fill:none;stroke:#F69C32;stroke-width:2;stroke-linecap:round;stroke-miterlimit:10;" d="M64.832,387.606
			c0,0,5.789-4.578,8.593-9.175"/>
		<path style="fill:none;stroke:#F69C32;stroke-width:2;stroke-linecap:round;stroke-miterlimit:10;" d="M64.388,394.761
			c0,0-6.536-2.766-7.54-7.012"/>
		<path style="fill:none;stroke:#F69C32;stroke-width:2;stroke-linecap:round;stroke-miterlimit:10;" d="M64.016,402.458
			c0,0,6.039-2.939,8.707-6.125"/>
		<path style="fill:none;stroke:#F69C32;stroke-width:2;stroke-linecap:round;stroke-miterlimit:10;" d="M63.772,408.661
			c0,0-5.707-3.889-6.638-7.341"/>
	</g>
	<g>
		<path style="fill:#FBCF9E;" d="M65.477,417.178c0,0-0.383-18.894,18.289-17.272C83.765,399.906,85.105,416.789,65.477,417.178z"/>
		<path style="fill:none;stroke:#F69C32;stroke-linecap:round;stroke-miterlimit:10;" d="M63.481,419.448
			c0,0,13.69-15.307,17.906-17.952"/>
		<path style="fill:none;stroke:#F69C32;stroke-linecap:round;stroke-miterlimit:10;" d="M75.28,406.972c0,0,3.658,0.169,6.203-0.64
			"/>
		<path style="fill:none;stroke:#F69C32;stroke-linecap:round;stroke-miterlimit:10;" d="M72.786,409.508
			c0,0-1.548-3.162-0.542-5.079"/>
		<path style="fill:none;stroke:#F69C32;stroke-linecap:round;stroke-miterlimit:10;" d="M70.142,412.269
			c0,0,3.218,0.864,5.253,0.539"/>
		<path style="fill:none;stroke:#F69C32;stroke-linecap:round;stroke-miterlimit:10;" d="M68.033,414.513
			c0,0-0.872-3.313-0.097-4.909"/>
	</g>
	<g>
		<path style="fill:#FBCF9E;" d="M415.239,201.219c0,0-18.89-0.541-16.358-19.111C398.881,182.108,415.809,181.596,415.239,201.219z
			"/>
		<path style="fill:none;stroke:#F69C32;stroke-linecap:round;stroke-miterlimit:10;" d="M417.408,203.323
			c0,0-14.62-14.421-17.056-18.762"/>
		<path style="fill:none;stroke:#F69C32;stroke-linecap:round;stroke-miterlimit:10;" d="M405.524,190.929
			c0,0,0.348-3.645-0.336-6.227"/>
		<path style="fill:none;stroke:#F69C32;stroke-linecap:round;stroke-miterlimit:10;" d="M407.934,193.544
			c0,0-3.234,1.391-5.1,0.293"/>
		<path style="fill:none;stroke:#F69C32;stroke-linecap:round;stroke-miterlimit:10;" d="M410.563,196.319
			c0,0,1.02-3.172,0.795-5.221"/>
		<path style="fill:none;stroke:#F69C32;stroke-linecap:round;stroke-miterlimit:10;" d="M412.701,198.536
			c0,0-3.352,0.709-4.908-0.143"/>
	</g>
	<g>
		<g>
			<polygon style="fill:#3F64C3;" points="323.992,74.771 325.836,77.138 315.852,84.91 325.826,92.547 324.002,94.929
				310.944,84.929 			"/>
		</g>
		<g>
			<circle style="fill:#93D5F5;" cx="324.914" cy="93.738" r="4.619"/>
		</g>
		<g>
			<path style="fill:#93D5F5;" d="M308.779,84.92c0-2.551,2.068-4.619,4.619-4.619c2.551,0,4.619,2.068,4.619,4.619
				c0,2.551-2.068,4.619-4.619,4.619C310.847,89.539,308.779,87.471,308.779,84.92z"/>
		</g>
		<g>
			<circle style="fill:#93D5F5;" cx="324.914" cy="75.955" r="4.619"/>
		</g>
	</g>
	<circle style="fill:#96D7F6;" cx="411.361" cy="329.789" r="3.333"/>
	<path style="fill:#96D7F6;" d="M62.189,282.139c0,1.841-1.492,3.333-3.333,3.333c-1.841,0-3.333-1.492-3.333-3.333
		c0-1.841,1.492-3.333,3.333-3.333C60.696,278.806,62.189,280.298,62.189,282.139z"/>
	<path style="fill:#F8CEC8;" d="M176.605,131.247c0,1.841-1.492,3.333-3.333,3.333c-1.841,0-3.333-1.492-3.333-3.333
		c0-1.841,1.492-3.333,3.333-3.333C175.113,127.913,176.605,129.406,176.605,131.247z"/>
	<circle style="fill:#F69C32;" cx="106.932" cy="375.023" r="1.908"/>
	<path style="fill:#F8CEC8;" d="M119.015,212.493c0,0,3.538,2.53,5.117,2.431c1.579-0.099-0.526,2.469-0.526,2.469l-5.895-0.781
		L119.015,212.493z"/>
	<path style="fill:#E8BCB8;" d="M158.511,231.828c0,0,2.984,3.93,1.832,11.537l2.04-1.267c0,0,0.829-7.213-2.765-11.045
		L158.511,231.828z"/>
	<path style="fill:#E8BCB8;" d="M191.493,237.209c0,0-2.136,3.712-5.469,4.717l0.5,6.338l-0.883,1.034c0,0-0.676,6.016-0.313,7.033
		l-1.379,0.479c0,0,1.416-16.654,1.447-17.304c0,0,1.842,0.044,5.569-3.64L191.493,237.209z"/>
	<path style="fill:#E8BCB8;" d="M145.953,262.278l-1.35,0.587c0,0-3.352,10.445-3.391,11.975h0.442L145.953,262.278z"/>
	<path style="fill:#9378D7;" d="M178.551,212.393c0,0-9.61,6.026-11.318,6.282c-1.708,0.256-3.688,0.905-4.136-1.066l-0.71,0.886
		c0,0-0.154,1.352,1.054,1.935c0.563,0.272,3.115,0.083,4.766-0.458c1.651-0.542,5.567-2.458,6.401-3.042
		c0.833-0.583,5.272-3.77,5.365-4.114S179.452,212.188,178.551,212.393z"/>
	<g>
		<path style="fill:#1B145D;" d="M304.646,389.168c0,0,36.453-27.669,39.703-25.719c7.562,4.538,18.372,23.579,33.203,46.083
			h-18.267l-20.175-19.184c0,0-6.679,11.806-7.471,15.052c-0.792,3.246-17.068-2.297-17.068-2.297l-9.925-5.531V389.168z"/>
		<path style="fill:#E2B3AF;" d="M344.798,393.882c0,0-0.126-2.88,0.867-2.619c0.992,0.261,2.233,2.155,1.737,3.937
			c-0.496,1.782-1.24,5.285-9.056,3.906L344.798,393.882z"/>
		<path style="fill:#F8CEC8;" d="M343.185,385.569c0,0,1.454,3.167,1.737,6.823c0.283,3.656,0,4.563,0,5.569s-8.891,1.971-10.834,0
			c-1.943-1.971,0.786-11.151,1.654-12.392C336.61,384.328,343.185,385.569,343.185,385.569z"/>
		<path style="fill:#F8CEC8;" d="M335.742,385.569c0,0-2.733,2.46-4.073,4.218c-1.341,1.758-2.253,3.97-1.137,4.714
			c1.116,0.744,3.378-3.238,3.378-3.238l1.833-2.468V385.569z"/>
		<path style="fill:#1B145D;" d="M277.844,418.977c0,0,4.089,12.691,40.794,8.854c36.705-3.837,39.361-0.295,47.625-0.885
			c8.264-0.59,41.024,0.295,44.271,0.295c3.246,0,2.066-14.167,0-15.642c-2.066-1.476-23.021-4.427-25.972-4.427
			c-2.951,0-17.413-0.295-22.135,0c-4.722,0.295-45.537-7.969-47.855-9.149c-2.318-1.18-6.776-0.472-6.776-0.472l-35.164,0.251
			L277.844,418.977z"/>
		<path style="fill:#5761F6;" d="M309.588,376.182c-2.96-3.542-1.171-34.531-3.67-41.319c-2.499-6.788-4.963-7.083-4.963-7.083
			l-1.22,1.974l2.336,1.568c0,0,5.259,6.001,3.847,21.52c-0.987,10.846-1.929,21.892-0.672,29.679l1.589,8.139
			c0.972,1.194,2.788,2.196,2.743,3.253l0,0l5.939-5.629C315.518,388.283,312.548,379.724,309.588,376.182z"/>
		<path style="fill:#5761F6;" d="M300.955,327.78c0,0,30.618,13.261,36.914,18.003s6.48,40.065,6.48,40.065s-7.294,2.656-10.066,0
			c-2.772-2.656-5.587-29.671-6.915-31.442c-1.328-1.771-21.451-11.42-21.451-11.42l-7.531-11.052L300.955,327.78z"/>
		<path style="fill:#FF9A26;" d="M302.071,331.322c0,0,5.259,6.001,3.847,21.52c-1.412,15.52-2.74,31.457,2.351,37.655
			c5.091,6.198-6.198,10.846-6.198,10.846s-20.807,5.755-29.44-3.542c-8.633-9.297,0.324-59.129,7.909-65.867
			c7.585-6.737,10.315-8.139,10.315-8.139L302.071,331.322z"/>
		<path style="fill:#4456C1;" d="M288.347,320.992c0,0,7.234-1.036,13.283,7.082l0.441,3.248l-5.896-2.189L288.347,320.992z"/>

			<rect x="352.981" y="311.705" transform="matrix(-0.9733 -0.2293 0.2293 -0.9733 626.1781 718.4999)" style="fill:#353535;" width="3.719" height="22.316"/>
		<path style="fill:#F8CEC8;" d="M350.472,333.297c0,0-1.293-1.867-1.201-2.588c0.092-0.722,2.682-1.641,2.516-2.993
			c-0.166-1.352-1.636-2.6-3.156-0.92c-1.519,1.68-1.493,2.743-3.471,3.55s-0.652,8.276,1.3,10.215l5.548,3.11
			C352.008,343.67,358.886,331.755,350.472,333.297z"/>
		<path style="fill:#F8CEC8;" d="M357.205,320.939c0,0,1.156,2.772,2.005,3.777c0.849,1.005-0.659,15.51-7.461,19.611l-2.444-1.919
			l4.787-8.259L357.205,320.939z"/>
		<path style="fill:#F8CEC8;" d="M306.752,321.576c0,0-7.19,0.772-6.747,4.152c0,0,2.066,4.118,2.066,5.593
			c0,0-8.116-1.328-11.215-7.526c0,0,1.986-7.723,4.977-7.928l6.681,2.924L306.752,321.576z"/>
		<path style="fill:#5761F6;" d="M288.347,320.992c0,0,10.182,6.05,13.429,12.396c3.246,6.345,3.394,7.747,2.509,15.273
			c-0.885,7.526-6.926,12.838-5.898,23.685c1.028,10.846,12.096,33.424,14.53,36.302c2.435,2.878-30.104,19.922-38.737,10.846
			c0,0-6.419-10.182-7.526-35.417s2.656-40.286,5.977-48.034C275.951,328.296,288.347,320.992,288.347,320.992z"/>
		<path style="fill:#5761F6;" d="M295.209,335.38c0,0,24.524,19.036,26.982,19.7c2.458,0.664,21.494-14.831,23.265-15.716
			c1.771-0.885,7.305,5.091,7.526,7.747c0.221,2.656-25.762,25.013-28.819,26.562c-3.056,1.549-33.308-21.471-33.308-21.471
			s-14.019-8.854-9.371-15.052C286.133,330.953,288.436,330.172,295.209,335.38z"/>
		<path style="fill:#FF9A26;" d="M411.361,412.947c0,0,4.211-0.826,4.878-0.992c0.667-0.167,4.947-12.856,4.28-17.356
			c-0.667-4.5,6.72-5.81,8.22-5.144c1.5,0.667,3.333,18.167,1.833,26.833c-1.5,8.667-1.333,6.5-2.333,7.667h-15.857L411.361,412.947
			z"/>
		<path style="fill:#353535;" d="M431.13,389.291l-2.392,0.163c1.5,0.667,3.333,18.167,1.833,26.833
			c-1.5,8.667-1.333,6.5-2.333,7.667l2.892-0.5C436.522,405.621,431.13,389.291,431.13,389.291z"/>
		<path style="fill:#1B145D;" d="M415.793,411.162c0,0,0,1.833,3.5,3.458s0-2.466,0-2.466s-2.441-0.71-2.658-2.622L415.793,411.162z
			"/>
		<path style="fill:#1B145D;" d="M417.274,407.616c0,0,0.214,1.821,3.879,3.026c3.666,1.206-0.288-2.449-0.288-2.449
			s-2.507-0.42-2.946-2.294L417.274,407.616z"/>
		<path style="fill:#F8CEC8;" d="M415.793,412.267l-0.229-0.164c-1.392,0.293-4.203,0.844-4.203,0.844l1.021,11.008h3.919
			C416.301,423.954,423.722,419.685,415.793,412.267z"/>
		<path style="fill:#F8CEC8;" d="M324.259,296.926c0,0,5.018,6.57-1.788,14.554c0,0,5.185,1.259,2.389,4.017
			c-2.797,2.757-4.021,1.63-4.021,1.63s-2.34,7.902-11.427,7.58c-9.088-0.322-15.958-5.051-15.958-5.051l4.61-23.218
			c0,0,10.634-7.167,11.08-7.118c0.446,0.049,10.632,6.627,10.632,6.627L324.259,296.926z"/>
		<path style="fill:#FD9B2A;" d="M333.36,296.413c2.64-0.55,7.98-4.57,8.31-4.82c-2.35,0.56-4.7,0.72-6.99,0.58
			c-11.01-0.63-20.5-7.95-20.5-7.95s-10.28-9.66-20.57,2.16c0,0-12.2,2.15-8.48,19.58c3.72,17.44,11.98,13.92,13.23,13.17
			s6.36-7.66,6.43-10.17c0.07-2.52-3.06-4.62-0.39-10.41c2.67-5.8,6.71-2.23,6.25,0.5c-0.47,2.73-5.77,8.68-1.49,9.41
			c0,0,1.91-0.11,3.94-4.98c0,0,5.66,0.12,9.64-1.64c8.37-0.23,15.45-4.6,15.45-4.6C334.86,297.743,333.36,296.413,333.36,296.413z"
			/>
		<path style="fill:#353535;" d="M322.082,309.112c-0.577,1.031-1.217,1.77-1.43,1.652c-0.212-0.119,0.084-1.051,0.661-2.082
			s1.217-1.77,1.43-1.652C322.955,307.149,322.659,308.081,322.082,309.112z"/>
		<path style="fill:#F8CEC8;" d="M350.472,333.297c0,0,4.328-2.151,5.255-6.085l1.942,2.614c0,0-2.167,3.564-2.5,4.324
			c-0.333,0.759-3.917,1.843-3.917,1.843L350.472,333.297z"/>
		<path style="fill:#EAC0BB;" d="M334.455,386.778c0,0,0.736,0.694,2.611,0.902c1.875,0.208,4.708-0.319,5.042-0.451
			c0.333-0.132,1.558-0.451,1.558-0.451l-0.239-0.633c0,0-5.64,1.37-8.501,0.182L334.455,386.778z"/>
		<path style="fill:#E5B7B3;" d="M292.513,319.29l7.493,5.847c0,0,0.241-1.366,1.338-1.849L292.513,319.29z"/>
		<path style="fill:#E5B7B3;" d="M345.437,338.945c0,0,1.337-0.806,3.024,0.788c1.688,1.594,3.406,3.985,3.547,4.43l-0.26,0.165
			c0,0-3.087-4.166-5.062-4.849l-1.076-0.17L345.437,338.945z"/>
	</g>
</g>
</svg>
